<svg id="Capa_1" enable-background="new 0 0 512 512" height="512" viewBox="0 0 512 512" width="512" xmlns="http://www.w3.org/2000/svg"><g><path d="m480.728 469.94c-1.12 5.58-5.29 10.05-10.78 11.54-4.6 1.24-113.67 30.52-213.93 30.52s-209.33-29.28-213.93-30.52c-5.49-1.49-9.66-5.96-10.78-11.54-1.47-11.35-19.05-69.32-7.98-151.96 5.96-44.54 19.18-87.5 39.27-127.69 3.71-7.41 12.72-10.41 20.13-6.71h346.58c7.41-3.7 16.42-.7 20.13 6.71 20.09 40.19 33.31 83.15 39.27 127.69 10.98 81.98-6.5 140.53-7.98 151.96z" fill="#ffb64c"/><path d="m480.728 469.94c-1.12 5.58-5.29 10.05-10.78 11.54-4.6 1.24-113.67 30.52-213.93 30.52v-328.42h173.29c7.41-3.7 16.42-.7 20.13 6.71 20.09 40.19 33.31 83.15 39.27 127.69 10.98 81.98-6.5 140.53-7.98 151.96z" fill="#ff9100"/><path d="m416.518 147.71h-321c-5.92-5.8-6.01-15.29-.21-21.21l98.79-100.79c.03-.03.06-.07.1-.1 16.51-16.52 38.47-25.61 61.82-25.61s45.31 9.09 61.82 25.61c.04.03.07.07.1.1l98.79 100.79c5.8 5.92 5.71 15.41-.21 21.21z" fill="#fff7cc"/><path d="m416.518 147.71h-160.5v-147.71c23.35 0 45.31 9.09 61.82 25.61.04.03.07.07.1.1l98.79 100.79c5.8 5.92 5.71 15.41-.21 21.21z" fill="#ffe6b3"/><g><g><g><g><path d="m446.628 126.39c-2.82-2.81-6.63-4.39-10.61-4.39h-360c-3.98 0-7.79 1.58-10.61 4.39-22.39 22.39-22.39 58.83 0 81.22 2.82 2.81 6.63 4.39 10.61 4.39h360c3.98 0 7.79-1.58 10.61-4.39 22.39-22.39 22.39-58.83 0-81.22z" fill="#fed843"/></g></g></g></g><path d="m446.628 207.61c-2.82 2.81-6.63 4.39-10.61 4.39h-180v-90h180c3.98 0 7.79 1.58 10.61 4.39 22.39 22.39 22.39 58.83 0 81.22z" fill="#ffb64c"/><g><path d="m346.018 272h-180c-8.28 0-15 6.72-15 15v120c0 8.28 6.72 15 15 15h180c8.28 0 15-6.72 15-15v-120c0-8.28-6.72-15-15-15z" fill="#fff7cc"/></g><path d="m361.018 287v120c0 8.28-6.72 15-15 15h-90v-150h90c8.28 0 15 6.72 15 15z" fill="#ffe6b3"/></g></svg>